<svg width="211" height="68" viewBox="0 0 211 68" fill="none" xmlns="http://www.w3.org/2000/svg">
<rect width="211" height="68" rx="30" fill="#6B705C"/>
<path d="M25.168 45.014C24.6867 45.014 24.2433 44.8367 23.838 44.482C23.458 44.1527 23.1287 43.7473 22.85 43.266C22.5967 42.7847 22.4067 42.316 22.28 41.86C22.0267 40.8467 21.8367 39.6813 21.71 38.364C21.6087 37.0467 21.558 35.6533 21.558 34.184C21.558 32.588 21.6087 30.954 21.71 29.282C21.8367 27.61 22.0013 26.0013 22.204 24.456C22.4067 22.8853 22.6347 21.4667 22.888 20.2C23.1667 18.9333 23.4453 17.8947 23.724 17.084C23.7493 17.008 23.8 16.97 23.876 16.97C23.9773 16.9447 24.066 16.932 24.142 16.932C24.8007 16.932 25.3073 17.0333 25.662 17.236C26.0167 17.4387 26.2953 17.806 26.498 18.338C26.422 18.6673 26.2827 19.2753 26.08 20.162C25.9027 21.0233 25.6873 22.0747 25.434 23.316C25.206 24.5573 24.978 25.9127 24.75 27.382C24.522 28.826 24.3193 30.2953 24.142 31.79C23.99 33.2847 23.8887 34.7287 23.838 36.122C23.838 36.3753 23.8253 36.6413 23.8 36.92C23.8 37.1987 23.8 37.49 23.8 37.794C23.8 38.6553 23.838 39.5293 23.914 40.416C24.0153 41.2773 24.1927 41.9993 24.446 42.582C24.6993 43.1647 25.0793 43.456 25.586 43.456C25.8393 43.456 26.0673 43.38 26.27 43.228C26.4727 43.076 26.612 42.9113 26.688 42.734C26.764 42.5313 26.8527 42.43 26.954 42.43C27.106 42.43 27.182 42.5567 27.182 42.81V42.886C27.182 43.2407 27.0933 43.5953 26.916 43.95C26.7387 44.33 26.46 44.6087 26.08 44.786C25.776 44.938 25.472 45.014 25.168 45.014ZM39.19 43.342C38.4553 43.342 37.6953 43.2407 36.91 43.038C36.15 42.8353 35.4407 42.544 34.782 42.164C33.642 41.5053 32.5273 40.6693 31.438 39.656C30.3487 38.6173 29.3733 37.49 28.512 36.274C27.676 35.0327 27.0173 33.804 26.536 32.588C26.2827 31.9293 26.08 31.3213 25.928 30.764C25.776 30.1813 25.7 29.624 25.7 29.092C25.7 28.3573 25.8773 27.648 26.232 26.964C26.612 26.2547 27.2327 25.5073 28.094 24.722C28.702 24.19 29.462 23.582 30.374 22.898C31.3113 22.214 32.3247 21.53 33.414 20.846C34.5287 20.162 35.618 19.5287 36.682 18.946C37.7713 18.3633 38.772 17.8947 39.684 17.54C40.6213 17.1853 41.3687 17.008 41.926 17.008H42.04C42.724 17.008 43.066 17.1093 43.066 17.312C43.066 17.464 42.8253 17.6033 42.344 17.73C41.8627 17.8313 41.1533 18.11 40.216 18.566C39.2787 19.022 38.24 19.5793 37.1 20.238C35.9853 20.8967 34.8707 21.606 33.756 22.366C32.6667 23.1007 31.704 23.8227 30.868 24.532C30.032 25.2413 29.462 25.862 29.158 26.394C28.9553 26.7487 28.7907 27.116 28.664 27.496C28.5373 27.876 28.474 28.2813 28.474 28.712C28.474 29.548 28.74 30.46 29.272 31.448C30.3107 33.2973 31.514 35.0327 32.882 36.654C34.25 38.25 35.6813 39.4533 37.176 40.264C37.48 40.4413 37.936 40.6693 38.544 40.948C39.1773 41.2013 39.7473 41.328 40.254 41.328C40.558 41.328 40.8113 41.252 41.014 41.1C41.242 40.948 41.3687 40.682 41.394 40.302V40.15C41.394 39.5167 41.1913 38.8453 40.786 38.136C40.406 37.4267 40.0513 36.8313 39.722 36.35C39.4687 35.9193 39.342 35.6153 39.342 35.438C39.342 35.286 39.4053 35.21 39.532 35.21C39.836 35.21 40.2033 35.4507 40.634 35.932C40.8873 36.1853 41.1533 36.502 41.432 36.882C41.7107 37.2367 41.9513 37.604 42.154 37.984C42.7113 38.9973 42.99 39.8713 42.99 40.606C42.99 41.5433 42.61 42.24 41.85 42.696C41.1153 43.1267 40.2287 43.342 39.19 43.342ZM54.7869 43.19C54.0016 43.19 53.3683 42.9493 52.8869 42.468C52.4056 41.9613 52.0256 41.328 51.7469 40.568C51.4936 39.7827 51.3163 38.9973 51.2149 38.212C51.1136 37.4013 51.0629 36.692 51.0629 36.084C50.7589 37.224 50.3663 38.3387 49.8849 39.428C49.4289 40.5173 48.9223 41.4167 48.3649 42.126C47.8076 42.81 47.1996 43.152 46.5409 43.152H46.5029C45.8949 43.152 45.3883 42.8733 44.9829 42.316C44.5776 41.7333 44.2736 40.9733 44.0709 40.036C43.8683 39.0987 43.7669 38.0853 43.7669 36.996V36.616C43.7669 35.6027 43.8556 34.488 44.0329 33.272C44.2103 32.0307 44.5269 30.8527 44.9829 29.738C45.4389 28.6233 46.0596 27.7113 46.8449 27.002C47.6556 26.2673 48.6816 25.9 49.9229 25.9C50.4043 25.9 50.8349 26.014 51.2149 26.242C51.6203 26.4447 51.9116 26.7487 52.0889 27.154C52.2663 26.9513 52.5069 26.7867 52.8109 26.66C53.1149 26.5333 53.4823 26.47 53.9129 26.47C54.0649 26.47 54.2296 26.4827 54.4069 26.508C54.6096 26.5333 54.8123 26.5713 55.0149 26.622C54.8629 27.2047 54.6856 28.0027 54.4829 29.016C54.2803 30.0293 54.1029 31.144 53.9509 32.36C53.8243 33.5507 53.7609 34.716 53.7609 35.856V36.008C53.7609 36.4893 53.7863 37.0593 53.8369 37.718C53.8876 38.3767 53.9763 39.0227 54.1029 39.656C54.2296 40.2893 54.4069 40.8213 54.6349 41.252C54.8629 41.6827 55.1543 41.898 55.5089 41.898H55.5469C55.7496 41.898 55.9649 41.7967 56.1929 41.594C56.4463 41.3913 56.7123 41.0113 56.9909 40.454C57.3709 39.7193 57.7256 38.7693 58.0549 37.604C58.1056 37.376 58.2069 37.262 58.3589 37.262C58.4856 37.262 58.5489 37.414 58.5489 37.718V37.87C58.4983 38.5287 58.3209 39.276 58.0169 40.112C57.7129 40.948 57.2823 41.67 56.7249 42.278C56.1929 42.886 55.5469 43.19 54.7869 43.19ZM47.8329 40.036C48.2383 40.036 48.6056 39.7447 48.9349 39.162C49.2896 38.5793 49.6063 37.87 49.8849 37.034C50.1636 36.198 50.4043 35.3873 50.6069 34.602C50.9109 33.4367 51.1136 32.2587 51.2149 31.068C51.3163 29.852 51.5316 28.6613 51.8609 27.496C51.5569 27.1667 51.2149 27.002 50.8349 27.002C50.2776 27.002 49.7076 27.2807 49.1249 27.838C48.5423 28.3953 48.0863 29.0287 47.7569 29.738C47.3516 30.6247 47.0476 31.6633 46.8449 32.854C46.6676 34.0447 46.5789 35.1847 46.5789 36.274C46.5789 36.5527 46.5789 36.8313 46.5789 37.11C46.6043 37.3887 46.6296 37.6547 46.6549 37.908C46.7056 38.668 46.8449 39.2127 47.0729 39.542C47.3263 39.8713 47.5796 40.036 47.8329 40.036ZM62.4436 55.464C61.5316 55.464 60.8096 55.2487 60.2776 54.818C59.7456 54.4127 59.3403 53.8807 59.0616 53.222C58.783 52.5887 58.5803 51.892 58.4536 51.132C58.327 50.3973 58.2383 49.688 58.1876 49.004C58.1623 48.5733 58.137 47.8133 58.1116 46.724C58.0863 45.6347 58.0736 44.3427 58.0736 42.848C58.0736 42.3413 58.0736 41.7713 58.0736 41.138C58.0736 40.4793 58.0863 39.618 58.1116 38.554C58.137 37.4647 58.1623 36.0207 58.1876 34.222C58.213 33.1073 58.2636 31.8533 58.3396 30.46C58.4156 29.0413 58.5296 27.5973 58.6816 26.128C58.859 24.6333 59.0743 23.1893 59.3276 21.796C59.6063 20.3773 59.9356 19.1107 60.3156 17.996C60.721 16.8813 61.2023 15.9947 61.7596 15.336C62.3423 14.6773 63.0136 14.348 63.7736 14.348C64.407 14.348 64.9136 14.5507 65.2936 14.956C65.6736 15.3613 65.9523 15.8553 66.1296 16.438C66.307 16.9953 66.3956 17.5273 66.3956 18.034C66.3956 19.1993 66.2183 20.5167 65.8636 21.986C65.5343 23.43 65.0783 24.9373 64.4956 26.508C63.9383 28.0787 63.3303 29.624 62.6716 31.144C62.013 32.664 61.367 34.07 60.7336 35.362C60.7083 35.6153 60.683 35.8687 60.6576 36.122C60.6576 36.35 60.6576 36.5907 60.6576 36.844C61.747 36.8947 62.659 37.2493 63.3936 37.908C64.1536 38.5667 64.749 39.4027 65.1796 40.416C65.6356 41.4293 65.9523 42.506 66.1296 43.646C66.3323 44.8113 66.4336 45.9007 66.4336 46.914C66.4336 48.434 66.2816 49.84 65.9776 51.132C65.6736 52.424 65.2176 53.4627 64.6096 54.248C64.027 55.0587 63.305 55.464 62.4436 55.464ZM60.8856 33.082C61.7723 31.182 62.5576 29.2567 63.2416 27.306C63.9256 25.3553 64.4576 23.3413 64.8376 21.264C64.939 20.7067 65.015 20.1747 65.0656 19.668C65.1416 19.136 65.1796 18.6673 65.1796 18.262C65.1796 17.7553 65.129 17.35 65.0276 17.046C64.9263 16.742 64.7743 16.5773 64.5716 16.552H64.5336C64.2296 16.552 63.9383 16.8307 63.6596 17.388C63.381 17.92 63.1403 18.6293 62.9376 19.516C62.4563 21.6693 62.0383 23.8987 61.6836 26.204C61.3543 28.5093 61.0883 30.802 60.8856 33.082ZM62.4816 54.704C62.9376 54.704 63.343 54.4253 63.6976 53.868C64.0523 53.3107 64.331 52.576 64.5336 51.664C64.7363 50.752 64.8376 49.7513 64.8376 48.662C64.8376 47.75 64.7996 46.7113 64.7236 45.546C64.6476 44.406 64.4703 43.2787 64.1916 42.164C63.913 41.0493 63.4823 40.0867 62.8996 39.276C62.3423 38.4653 61.5696 37.9587 60.5816 37.756C60.5056 39.4533 60.4676 41.1 60.4676 42.696C60.4676 45.0013 60.5436 47.0533 60.6956 48.852C60.873 50.676 61.1136 52.1073 61.4176 53.146C61.7216 54.1847 62.0763 54.704 62.4816 54.704ZM71.6468 55.464C70.7348 55.464 70.0128 55.2487 69.4808 54.818C68.9488 54.4127 68.5434 53.8807 68.2648 53.222C67.9861 52.5887 67.7834 51.892 67.6568 51.132C67.5301 50.3973 67.4414 49.688 67.3908 49.004C67.3654 48.5733 67.3401 47.8133 67.3148 46.724C67.2894 45.6347 67.2768 44.3427 67.2768 42.848C67.2768 42.3413 67.2768 41.7713 67.2768 41.138C67.2768 40.4793 67.2894 39.618 67.3148 38.554C67.3401 37.4647 67.3654 36.0207 67.3908 34.222C67.4161 33.1073 67.4668 31.8533 67.5428 30.46C67.6188 29.0413 67.7328 27.5973 67.8848 26.128C68.0621 24.6333 68.2774 23.1893 68.5308 21.796C68.8094 20.3773 69.1388 19.1107 69.5188 17.996C69.9241 16.8813 70.4054 15.9947 70.9628 15.336C71.5454 14.6773 72.2168 14.348 72.9768 14.348C73.6101 14.348 74.1168 14.5507 74.4968 14.956C74.8768 15.3613 75.1554 15.8553 75.3328 16.438C75.5101 16.9953 75.5988 17.5273 75.5988 18.034C75.5988 19.1993 75.4214 20.5167 75.0668 21.986C74.7374 23.43 74.2814 24.9373 73.6988 26.508C73.1414 28.0787 72.5334 29.624 71.8748 31.144C71.2161 32.664 70.5701 34.07 69.9368 35.362C69.9114 35.6153 69.8861 35.8687 69.8608 36.122C69.8608 36.35 69.8608 36.5907 69.8608 36.844C70.9501 36.8947 71.8621 37.2493 72.5968 37.908C73.3568 38.5667 73.9521 39.4027 74.3828 40.416C74.8388 41.4293 75.1554 42.506 75.3328 43.646C75.5354 44.8113 75.6368 45.9007 75.6368 46.914C75.6368 48.434 75.4848 49.84 75.1808 51.132C74.8768 52.424 74.4208 53.4627 73.8128 54.248C73.2301 55.0587 72.5081 55.464 71.6468 55.464ZM70.0888 33.082C70.9754 31.182 71.7608 29.2567 72.4448 27.306C73.1288 25.3553 73.6608 23.3413 74.0408 21.264C74.1421 20.7067 74.2181 20.1747 74.2688 19.668C74.3448 19.136 74.3828 18.6673 74.3828 18.262C74.3828 17.7553 74.3321 17.35 74.2308 17.046C74.1294 16.742 73.9774 16.5773 73.7748 16.552H73.7368C73.4328 16.552 73.1414 16.8307 72.8628 17.388C72.5841 17.92 72.3434 18.6293 72.1408 19.516C71.6594 21.6693 71.2414 23.8987 70.8868 26.204C70.5574 28.5093 70.2914 30.802 70.0888 33.082ZM71.6848 54.704C72.1408 54.704 72.5461 54.4253 72.9008 53.868C73.2554 53.3107 73.5341 52.576 73.7368 51.664C73.9394 50.752 74.0408 49.7513 74.0408 48.662C74.0408 47.75 74.0028 46.7113 73.9268 45.546C73.8508 44.406 73.6734 43.2787 73.3948 42.164C73.1161 41.0493 72.6854 40.0867 72.1028 39.276C71.5454 38.4653 70.7728 37.9587 69.7848 37.756C69.7088 39.4533 69.6708 41.1 69.6708 42.696C69.6708 45.0013 69.7468 47.0533 69.8988 48.852C70.0761 50.676 70.3168 52.1073 70.6208 53.146C70.9248 54.1847 71.2794 54.704 71.6848 54.704ZM81.0019 43.722C79.7859 43.722 78.7979 43.3547 78.0379 42.62C77.3032 41.86 76.7585 40.9353 76.4039 39.846C76.0745 38.7313 75.9099 37.642 75.9099 36.578C75.9099 35.362 76.0365 34.146 76.2899 32.93C76.5432 31.6887 76.9359 30.5613 77.4679 29.548C78.0252 28.5347 78.7219 27.724 79.5579 27.116C80.3939 26.4827 81.3819 26.166 82.5219 26.166C83.3325 26.166 83.9659 26.4067 84.4219 26.888C84.8779 27.3693 85.1059 28.0787 85.1059 29.016C85.1059 30.2827 84.7892 31.41 84.1559 32.398C83.5479 33.3607 82.7752 34.146 81.8379 34.754C80.9005 35.362 79.9252 35.78 78.9119 36.008V36.198C78.9119 37.2367 79.0132 38.212 79.2159 39.124C79.4439 40.0107 79.7985 40.7327 80.2799 41.29C80.7865 41.822 81.4452 42.088 82.2559 42.088C83.2439 42.088 84.0039 41.6827 84.5359 40.872C85.0679 40.036 85.4859 38.9847 85.7899 37.718C85.8152 37.6167 85.8532 37.528 85.9039 37.452C85.9799 37.3507 86.0432 37.3 86.0939 37.3C86.3219 37.3 86.4232 37.4647 86.3979 37.794C86.3219 38.478 86.1699 39.124 85.9419 39.732C85.7139 40.34 85.4732 40.8593 85.2199 41.29C84.7385 42.0753 84.1559 42.6707 83.4719 43.076C82.8132 43.5067 81.9899 43.722 81.0019 43.722ZM78.9499 35.134C79.7605 34.9313 80.4699 34.5387 81.0779 33.956C81.6859 33.348 82.1545 32.6387 82.4839 31.828C82.8385 31.0173 83.0159 30.194 83.0159 29.358V29.168C83.0159 28.712 82.9399 28.2813 82.7879 27.876C82.6612 27.4707 82.4079 27.268 82.0279 27.268C81.5719 27.268 81.1665 27.496 80.8119 27.952C80.4825 28.3827 80.1912 28.94 79.9379 29.624C79.7099 30.308 79.5199 31.0173 79.3679 31.752C79.2159 32.4867 79.1019 33.158 79.0259 33.766C78.9752 34.374 78.9499 34.8173 78.9499 35.096V35.134ZM103.085 45.128C101.514 45.128 100.045 44.9253 98.6766 44.52C97.3086 44.1147 96.194 43.418 95.3326 42.43C94.978 41.9993 94.6866 41.48 94.4586 40.872C94.256 40.2387 94.1546 39.542 94.1546 38.782C94.1546 38.098 94.2433 37.4393 94.4206 36.806C94.75 35.666 95.358 34.64 96.2446 33.728C97.1313 32.7907 98.1573 31.98 99.3226 31.296C100.513 30.612 101.704 30.0547 102.895 29.624C104.111 29.1933 105.2 28.8893 106.163 28.712C105.453 28.5853 104.719 28.446 103.959 28.294C103.224 28.1167 102.553 27.8633 101.945 27.534C101.337 27.2047 100.855 26.736 100.501 26.128C98.2713 26.052 96.46 25.748 95.0666 25.216C93.6733 24.684 92.66 24.038 92.0266 23.278C91.3933 22.4927 91.0766 21.72 91.0766 20.96C91.0766 20.0987 91.4313 19.364 92.1406 18.756C92.85 18.1227 93.8253 17.806 95.0666 17.806C95.8013 17.806 96.5613 17.9833 97.3466 18.338C98.1573 18.6673 98.7906 19.0473 99.2466 19.478C99.5506 19.782 99.7026 20.01 99.7026 20.162C99.7026 20.2887 99.614 20.352 99.4366 20.352C99.2846 20.352 99.1453 20.314 99.0186 20.238C98.3853 19.858 97.7393 19.592 97.0806 19.44C96.4473 19.2627 95.814 19.174 95.1806 19.174C94.3953 19.174 93.762 19.3893 93.2806 19.82C92.8246 20.2253 92.5966 20.7193 92.5966 21.302C92.5966 21.834 92.85 22.404 93.3566 23.012C93.8633 23.5947 94.674 24.1013 95.7886 24.532C96.9033 24.9627 98.3726 25.2413 100.197 25.368C100.07 24.912 100.007 24.456 100.007 24C100.007 22.6573 100.323 21.5047 100.957 20.542C101.59 19.554 102.413 18.7307 103.427 18.072C104.465 17.4133 105.58 16.932 106.771 16.628C107.987 16.2987 109.177 16.134 110.343 16.134C112.217 16.134 113.687 16.514 114.751 17.274C115.84 18.034 116.385 18.9333 116.385 19.972C116.385 20.884 115.903 21.8087 114.941 22.746C113.978 23.658 112.445 24.4307 110.343 25.064C108.24 25.6973 105.479 26.052 102.059 26.128C102.515 26.66 103.199 27.1033 104.111 27.458C105.023 27.7873 106.188 27.952 107.607 27.952C108.189 27.952 108.823 27.9267 109.507 27.876C110.191 27.8 110.925 27.686 111.711 27.534H111.863C112.547 27.534 112.889 27.7747 112.889 28.256C112.889 28.6613 112.699 29.092 112.319 29.548C111.964 30.004 111.647 30.232 111.369 30.232H110.799C109.532 30.232 108.164 30.346 106.695 30.574C105.251 30.802 103.832 31.182 102.439 31.714C101.045 32.246 99.7913 32.9553 98.6766 33.842C97.562 34.7287 96.726 35.8433 96.1686 37.186C95.8393 37.9967 95.6746 38.7187 95.6746 39.352C95.6746 40.2133 95.9533 40.8847 96.5106 41.366C97.0933 41.8473 97.8406 42.1893 98.7526 42.392C99.6646 42.5947 100.627 42.696 101.641 42.696C102.679 42.696 103.693 42.6327 104.681 42.506C105.694 42.354 106.543 42.1893 107.227 42.012C109.051 41.556 110.71 40.91 112.205 40.074C113.699 39.2127 114.776 38.3893 115.435 37.604C116.017 36.92 116.309 36.2867 116.309 35.704C116.309 35.096 116.017 34.6273 115.435 34.298C114.852 33.9433 114.105 33.766 113.193 33.766C112.002 33.766 110.647 34.108 109.127 34.792C107.607 35.4507 106.188 36.54 104.871 38.06C104.643 38.3387 104.453 38.478 104.301 38.478C104.174 38.478 104.111 38.402 104.111 38.25C104.111 38.098 104.174 37.908 104.301 37.68C104.427 37.4267 104.63 37.1353 104.909 36.806C105.694 35.9193 106.619 35.1593 107.683 34.526C108.772 33.8927 109.887 33.3987 111.027 33.044C112.167 32.6893 113.205 32.512 114.143 32.512H114.219C115.485 32.512 116.448 32.8793 117.107 33.614C117.791 34.3233 118.133 35.1847 118.133 36.198C118.133 36.8313 118.006 37.4773 117.753 38.136C117.499 38.7947 117.107 39.428 116.575 40.036C115.789 40.948 114.7 41.7967 113.307 42.582C111.913 43.342 110.33 43.95 108.557 44.406C106.809 44.8873 104.985 45.128 103.085 45.128ZM101.641 25.406H101.755C104.668 25.406 106.986 25.178 108.709 24.722C110.457 24.266 111.711 23.696 112.471 23.012C113.256 22.328 113.649 21.644 113.649 20.96C113.649 20.2253 113.269 19.592 112.509 19.06C111.749 18.5027 110.748 18.224 109.507 18.224C108.645 18.224 107.746 18.3633 106.809 18.642C105.871 18.8953 104.985 19.288 104.149 19.82C103.338 20.3267 102.667 20.9473 102.135 21.682C101.628 22.4167 101.375 23.2527 101.375 24.19C101.375 24.646 101.463 25.0513 101.641 25.406ZM122.98 43.152C122.068 43.152 121.346 42.8607 120.814 42.278C120.282 41.6953 119.89 40.9987 119.636 40.188C119.383 39.352 119.231 38.5793 119.18 37.87C119.13 37.186 119.092 36.464 119.066 35.704C119.041 34.9187 119.028 34.0953 119.028 33.234C119.028 31.6633 119.066 30.042 119.142 28.37C119.244 26.698 119.383 25.0767 119.56 23.506C119.763 21.91 120.004 20.4913 120.282 19.25C120.434 18.6167 120.675 17.8947 121.004 17.084C121.334 16.2733 121.764 15.5767 122.296 14.994C122.828 14.386 123.462 14.082 124.196 14.082C125.691 14.082 126.438 15.2093 126.438 17.464C126.438 18.3507 126.286 19.63 125.982 21.302C125.704 22.9487 125.184 24.798 124.424 26.85C124.044 27.914 123.588 28.9907 123.056 30.08C122.55 31.144 122.043 32.1193 121.536 33.006C121.511 33.2087 121.498 33.424 121.498 33.652C121.498 33.8547 121.498 34.0573 121.498 34.26C121.498 35.1213 121.524 35.9953 121.574 36.882C121.65 37.7687 121.764 38.592 121.916 39.352C122.094 40.0867 122.334 40.682 122.638 41.138C122.942 41.594 123.335 41.822 123.816 41.822C124.374 41.822 124.817 41.594 125.146 41.138C125.501 40.6567 125.767 40.2007 125.944 39.77C126.046 39.542 126.134 39.2887 126.21 39.01C126.312 38.7313 126.413 38.44 126.514 38.136C126.616 37.8573 126.755 37.718 126.932 37.718C127.059 37.718 127.122 37.8573 127.122 38.136V38.212C127.122 38.3893 127.084 38.6173 127.008 38.896C126.958 39.1747 126.882 39.4533 126.78 39.732C126.476 40.6693 126.033 41.48 125.45 42.164C124.868 42.8227 124.044 43.152 122.98 43.152ZM121.574 31.372C122.233 30.0293 122.841 28.6107 123.398 27.116C123.956 25.596 124.399 24.1013 124.728 22.632C125.083 21.1627 125.26 19.8327 125.26 18.642C125.26 17.9073 125.197 17.2993 125.07 16.818C124.969 16.3367 124.766 16.096 124.462 16.096C124.184 16.096 123.918 16.3873 123.664 16.97C123.436 17.5273 123.221 18.2747 123.018 19.212C122.816 20.1493 122.626 21.1627 122.448 22.252C122.296 23.316 122.157 24.38 122.03 25.444C121.929 26.4827 121.84 27.4073 121.764 28.218C121.714 29.0033 121.676 29.5733 121.65 29.928C121.65 30.08 121.638 30.2827 121.612 30.536C121.612 30.764 121.6 31.0427 121.574 31.372ZM131.842 43.722C130.626 43.722 129.638 43.3547 128.878 42.62C128.143 41.86 127.598 40.9353 127.244 39.846C126.914 38.7313 126.75 37.642 126.75 36.578C126.75 35.362 126.876 34.146 127.13 32.93C127.383 31.6887 127.776 30.5613 128.308 29.548C128.865 28.5347 129.562 27.724 130.398 27.116C131.234 26.4827 132.222 26.166 133.362 26.166C134.172 26.166 134.806 26.4067 135.262 26.888C135.718 27.3693 135.946 28.0787 135.946 29.016C135.946 30.2827 135.629 31.41 134.996 32.398C134.388 33.3607 133.615 34.146 132.678 34.754C131.74 35.362 130.765 35.78 129.752 36.008V36.198C129.752 37.2367 129.853 38.212 130.056 39.124C130.284 40.0107 130.638 40.7327 131.12 41.29C131.626 41.822 132.285 42.088 133.096 42.088C134.084 42.088 134.844 41.6827 135.376 40.872C135.908 40.036 136.326 38.9847 136.63 37.718C136.655 37.6167 136.693 37.528 136.744 37.452C136.82 37.3507 136.883 37.3 136.934 37.3C137.162 37.3 137.263 37.4647 137.238 37.794C137.162 38.478 137.01 39.124 136.782 39.732C136.554 40.34 136.313 40.8593 136.06 41.29C135.578 42.0753 134.996 42.6707 134.312 43.076C133.653 43.5067 132.83 43.722 131.842 43.722ZM129.79 35.134C130.6 34.9313 131.31 34.5387 131.918 33.956C132.526 33.348 132.994 32.6387 133.324 31.828C133.678 31.0173 133.856 30.194 133.856 29.358V29.168C133.856 28.712 133.78 28.2813 133.628 27.876C133.501 27.4707 133.248 27.268 132.868 27.268C132.412 27.268 132.006 27.496 131.652 27.952C131.322 28.3827 131.031 28.94 130.778 29.624C130.55 30.308 130.36 31.0173 130.208 31.752C130.056 32.4867 129.942 33.158 129.866 33.766C129.815 34.374 129.79 34.8173 129.79 35.096V35.134ZM139.886 56.984C138.493 56.984 137.492 56.6293 136.884 55.92C136.301 55.236 136.01 54.3747 136.01 53.336C136.01 52.5507 136.149 51.7147 136.428 50.828C136.707 49.9667 137.061 49.1053 137.492 48.244C138.075 47.104 138.847 46.0527 139.81 45.09C140.773 44.1273 141.761 43.2787 142.774 42.544C143.787 41.784 144.661 41.176 145.396 40.72V40.454C145.396 39.998 145.371 39.3773 145.32 38.592C145.295 37.8067 145.257 36.9833 145.206 36.122C145.155 35.2607 145.105 34.5007 145.054 33.842C145.003 34.0193 144.953 34.1967 144.902 34.374C144.851 34.526 144.801 34.678 144.75 34.83C144.522 35.6913 144.256 36.616 143.952 37.604C143.648 38.592 143.293 39.5167 142.888 40.378C142.483 41.214 142.014 41.9107 141.482 42.468C140.975 43 140.405 43.266 139.772 43.266C139.113 43.266 138.581 43.0633 138.176 42.658C137.771 42.2527 137.467 41.746 137.264 41.138C137.061 40.5047 136.922 39.8587 136.846 39.2C136.77 38.5413 136.732 37.946 136.732 37.414C136.732 35.3873 136.96 33.462 137.416 31.638C137.897 29.814 138.721 28.3573 139.886 27.268C140.393 26.7867 140.912 26.4447 141.444 26.242C142.001 26.0393 142.521 25.938 143.002 25.938C143.585 25.938 144.117 26.0647 144.598 26.318C145.105 26.546 145.51 26.85 145.814 27.23C146.118 26.8753 146.46 26.66 146.84 26.584C147.22 26.4827 147.562 26.432 147.866 26.432H148.322C148.702 26.432 148.892 26.508 148.892 26.66C148.892 26.7107 148.841 26.7867 148.74 26.888C148.487 27.116 148.284 27.5593 148.132 28.218C148.005 28.8767 147.917 29.662 147.866 30.574C147.815 31.4607 147.79 32.3853 147.79 33.348C147.79 34.4373 147.803 35.4887 147.828 36.502C147.853 37.49 147.866 38.2627 147.866 38.82V39.238C148.575 38.8073 149.209 38.4653 149.766 38.212C150.323 37.9333 150.741 37.794 151.02 37.794C151.071 37.794 151.109 37.8067 151.134 37.832C151.159 37.832 151.185 37.832 151.21 37.832C151.337 37.8573 151.4 37.946 151.4 38.098C151.4 38.1993 151.375 38.3007 151.324 38.402C151.273 38.478 151.197 38.516 151.096 38.516C150.792 38.5413 150.374 38.706 149.842 39.01C149.335 39.2887 148.867 39.618 148.436 39.998C148.005 40.3527 147.79 40.6693 147.79 40.948V41.556C147.79 45.052 147.423 47.94 146.688 50.22C145.979 52.5 145.016 54.1973 143.8 55.312C142.609 56.4267 141.305 56.984 139.886 56.984ZM140.76 40.188H140.874C141.355 40.188 141.786 39.8713 142.166 39.238C142.571 38.6047 142.926 37.8067 143.23 36.844C143.559 35.856 143.838 34.8427 144.066 33.804C144.319 32.74 144.522 31.79 144.674 30.954C144.826 30.0927 144.94 29.472 145.016 29.092C145.117 28.484 145.295 27.9773 145.548 27.572C145.269 27.2173 144.877 27.04 144.37 27.04C143.61 27.04 142.951 27.2807 142.394 27.762C141.862 28.2433 141.406 28.8767 141.026 29.662C140.671 30.4473 140.38 31.2833 140.152 32.17C139.949 33.0313 139.797 33.8673 139.696 34.678C139.595 35.4633 139.544 36.122 139.544 36.654C139.544 36.8313 139.544 37.11 139.544 37.49C139.569 37.87 139.62 38.2753 139.696 38.706C139.772 39.1113 139.886 39.466 140.038 39.77C140.215 40.0487 140.456 40.188 140.76 40.188ZM139.468 56.186C140.709 56.186 141.748 55.5907 142.584 54.4C143.42 53.2093 144.066 51.5247 144.522 49.346C145.003 47.1927 145.307 44.634 145.434 41.67C145.029 41.898 144.408 42.3667 143.572 43.076C142.736 43.7853 141.862 44.6593 140.95 45.698C140.063 46.762 139.316 47.9653 138.708 49.308C138.379 50.0427 138.125 50.752 137.948 51.436C137.771 52.1453 137.682 52.7913 137.682 53.374C137.682 54.21 137.834 54.8813 138.138 55.388C138.467 55.92 138.911 56.186 139.468 56.186ZM162.107 43.19C161.322 43.19 160.689 42.9493 160.207 42.468C159.726 41.9613 159.346 41.328 159.067 40.568C158.814 39.7827 158.637 38.9973 158.535 38.212C158.434 37.4013 158.383 36.692 158.383 36.084C158.079 37.224 157.687 38.3387 157.205 39.428C156.749 40.5173 156.243 41.4167 155.685 42.126C155.128 42.81 154.52 43.152 153.861 43.152H153.823C153.215 43.152 152.709 42.8733 152.303 42.316C151.898 41.7333 151.594 40.9733 151.391 40.036C151.189 39.0987 151.087 38.0853 151.087 36.996V36.616C151.087 35.6027 151.176 34.488 151.353 33.272C151.531 32.0307 151.847 30.8527 152.303 29.738C152.759 28.6233 153.38 27.7113 154.165 27.002C154.976 26.2673 156.002 25.9 157.243 25.9C157.725 25.9 158.155 26.014 158.535 26.242C158.941 26.4447 159.232 26.7487 159.409 27.154C159.587 26.9513 159.827 26.7867 160.131 26.66C160.435 26.5333 160.803 26.47 161.233 26.47C161.385 26.47 161.55 26.4827 161.727 26.508C161.93 26.5333 162.133 26.5713 162.335 26.622C162.183 27.2047 162.006 28.0027 161.803 29.016C161.601 30.0293 161.423 31.144 161.271 32.36C161.145 33.5507 161.081 34.716 161.081 35.856V36.008C161.081 36.4893 161.107 37.0593 161.157 37.718C161.208 38.3767 161.297 39.0227 161.423 39.656C161.55 40.2893 161.727 40.8213 161.955 41.252C162.183 41.6827 162.475 41.898 162.829 41.898H162.867C163.07 41.898 163.285 41.7967 163.513 41.594C163.767 41.3913 164.033 41.0113 164.311 40.454C164.691 39.7193 165.046 38.7693 165.375 37.604C165.426 37.376 165.527 37.262 165.679 37.262C165.806 37.262 165.869 37.414 165.869 37.718V37.87C165.819 38.5287 165.641 39.276 165.337 40.112C165.033 40.948 164.603 41.67 164.045 42.278C163.513 42.886 162.867 43.19 162.107 43.19ZM155.153 40.036C155.559 40.036 155.926 39.7447 156.255 39.162C156.61 38.5793 156.927 37.87 157.205 37.034C157.484 36.198 157.725 35.3873 157.927 34.602C158.231 33.4367 158.434 32.2587 158.535 31.068C158.637 29.852 158.852 28.6613 159.181 27.496C158.877 27.1667 158.535 27.002 158.155 27.002C157.598 27.002 157.028 27.2807 156.445 27.838C155.863 28.3953 155.407 29.0287 155.077 29.738C154.672 30.6247 154.368 31.6633 154.165 32.854C153.988 34.0447 153.899 35.1847 153.899 36.274C153.899 36.5527 153.899 36.8313 153.899 37.11C153.925 37.3887 153.95 37.6547 153.975 37.908C154.026 38.668 154.165 39.2127 154.393 39.542C154.647 39.8713 154.9 40.036 155.153 40.036ZM166.482 43.304C166.127 43.304 165.823 43.1773 165.57 42.924C165.342 42.6453 165.228 42.1893 165.228 41.556C165.228 41.4547 165.228 41.3533 165.228 41.252C165.228 41.1253 165.24 40.9987 165.266 40.872C165.316 40.416 165.367 39.7827 165.418 38.972C165.494 38.1613 165.544 37.2493 165.57 36.236C165.62 35.2227 165.646 34.2093 165.646 33.196C165.646 32.132 165.608 31.1313 165.532 30.194C165.481 29.2313 165.38 28.4713 165.228 27.914C165.43 27.8633 165.696 27.724 166.026 27.496C166.355 27.268 166.697 27.116 167.052 27.04C167.128 27.0147 167.229 27.002 167.356 27.002C167.786 27.002 168.052 27.23 168.154 27.686C168.28 28.142 168.344 28.6993 168.344 29.358C168.344 29.814 168.331 30.3587 168.306 30.992C168.306 31.6 168.28 32.132 168.23 32.588C168.508 31.7773 168.812 31.0807 169.142 30.498C169.471 29.89 169.826 29.3073 170.206 28.75C170.586 28.1673 170.991 27.5973 171.422 27.04C171.852 26.4573 172.435 26.166 173.17 26.166C173.93 26.166 174.424 26.4193 174.652 26.926C174.88 27.4327 174.994 27.99 174.994 28.598C174.994 28.9273 174.981 29.244 174.956 29.548C174.93 29.8267 174.905 30.0927 174.88 30.346C174.88 30.5233 174.842 30.992 174.766 31.752C174.69 32.4867 174.614 33.3607 174.538 34.374C174.462 35.362 174.424 36.3627 174.424 37.376C174.424 37.6547 174.436 38.0473 174.462 38.554C174.487 39.0353 174.538 39.5293 174.614 40.036C174.69 40.5173 174.816 40.9353 174.994 41.29C175.196 41.6193 175.462 41.784 175.792 41.784C175.994 41.784 176.222 41.708 176.476 41.556C176.754 41.3533 176.995 41.0873 177.198 40.758C177.426 40.4287 177.603 40.0993 177.73 39.77C177.831 39.542 177.932 39.2887 178.034 39.01C178.135 38.7313 178.224 38.44 178.3 38.136C178.401 37.832 178.54 37.68 178.718 37.68C178.844 37.68 178.908 37.8067 178.908 38.06V38.212C178.908 38.3893 178.87 38.6173 178.794 38.896C178.743 39.1747 178.667 39.4533 178.566 39.732C178.262 40.6693 177.806 41.4927 177.198 42.202C176.615 42.886 175.792 43.228 174.728 43.228C174.018 43.228 173.461 42.962 173.056 42.43C172.676 41.8727 172.397 41.1633 172.22 40.302C172.118 39.8207 172.042 39.3393 171.992 38.858C171.966 38.3767 171.954 37.8953 171.954 37.414C171.954 36.2233 172.03 35.0453 172.182 33.88C172.359 32.6893 172.448 31.5493 172.448 30.46C172.448 30.1053 172.397 29.776 172.296 29.472C172.22 29.1427 172.03 28.978 171.726 28.978C171.422 28.978 171.054 29.2693 170.624 29.852C170.193 30.4093 169.75 31.2327 169.294 32.322C168.838 33.386 168.458 34.602 168.154 35.97C167.85 37.3127 167.698 38.6933 167.698 40.112C167.698 40.9733 167.774 41.8473 167.926 42.734C167.748 42.8607 167.52 42.9873 167.242 43.114C166.963 43.2407 166.71 43.304 166.482 43.304ZM181.519 56.946C180.151 56.946 179.201 56.566 178.669 55.806C178.163 55.0713 177.909 54.1973 177.909 53.184C177.909 52.2973 178.049 51.398 178.327 50.486C178.606 49.5993 178.923 48.852 179.277 48.244C179.784 47.3573 180.443 46.4073 181.253 45.394C182.089 44.3807 183.027 43.3927 184.065 42.43C185.129 41.442 186.244 40.5807 187.409 39.846C187.181 39.162 186.852 38.6807 186.421 38.402C186.016 38.1233 185.585 37.984 185.129 37.984C184.648 37.984 184.192 38.1107 183.761 38.364C183.331 38.592 182.976 38.8833 182.697 39.238V39.428C182.697 40.112 182.545 40.7073 182.241 41.214C181.937 41.6953 181.545 41.936 181.063 41.936C180.709 41.936 180.493 41.708 180.417 41.252C180.417 41.2013 180.405 41.1633 180.379 41.138C180.379 41.0873 180.379 41.0367 180.379 40.986C180.379 40.4793 180.569 39.77 180.949 38.858C181.355 37.9207 181.861 36.9073 182.469 35.818C183.077 34.7287 183.698 33.6647 184.331 32.626C184.99 31.562 185.585 30.6247 186.117 29.814C186.649 29.0033 187.017 28.4207 187.219 28.066C186.966 28.4713 186.624 28.75 186.193 28.902C185.788 29.054 185.37 29.13 184.939 29.13C184.635 29.13 184.357 29.1047 184.103 29.054C183.85 29.0033 183.635 28.9653 183.457 28.94C183.255 28.8893 183.052 28.8513 182.849 28.826C182.672 28.8007 182.507 28.788 182.355 28.788C181.798 28.788 181.393 28.9527 181.139 29.282C180.911 29.586 180.734 30.0167 180.607 30.574C180.43 31.3593 180.278 32.17 180.151 33.006C180.025 33.8167 179.873 34.6273 179.695 35.438C179.518 36.2993 179.315 37.1353 179.087 37.946C178.885 38.7313 178.682 39.4153 178.479 39.998C178.378 40.3273 178.213 40.492 177.985 40.492C177.808 40.492 177.719 40.378 177.719 40.15C177.719 40.0993 177.719 40.036 177.719 39.96C177.745 39.884 177.77 39.808 177.795 39.732C178.023 39.0733 178.226 38.3767 178.403 37.642C178.606 36.9073 178.796 36.16 178.973 35.4C179.252 34.1333 179.404 32.8667 179.429 31.6C179.48 30.3333 179.657 29.092 179.961 27.876C180.139 27.1667 180.392 26.5967 180.721 26.166C181.051 25.7353 181.532 25.52 182.165 25.52C182.393 25.52 182.659 25.558 182.963 25.634C183.419 25.7353 183.901 25.938 184.407 26.242C184.914 26.5207 185.408 26.7867 185.889 27.04C186.396 27.2933 186.827 27.42 187.181 27.42C187.333 27.42 187.485 27.382 187.637 27.306C187.688 26.774 187.865 26.2167 188.169 25.634C188.499 25.0513 188.98 24.76 189.613 24.76C189.968 24.76 190.234 24.874 190.411 25.102C190.589 25.3047 190.677 25.5453 190.677 25.824V26.014C190.601 26.4193 190.31 26.8753 189.803 27.382C189.297 27.8633 188.676 28.2433 187.941 28.522C187.764 28.8007 187.435 29.2947 186.953 30.004C186.472 30.7133 185.927 31.5747 185.319 32.588C184.737 33.576 184.167 34.6273 183.609 35.742C183.508 35.9193 183.369 36.2107 183.191 36.616C183.014 37.0213 182.849 37.4393 182.697 37.87C183.179 37.2367 183.774 36.7553 184.483 36.426C185.193 36.0713 185.902 35.894 186.611 35.894C187.346 35.894 188.03 36.084 188.663 36.464C189.297 36.844 189.778 37.4773 190.107 38.364C190.918 38.0347 191.729 37.87 192.539 37.87H192.919C193.097 37.87 193.185 37.9713 193.185 38.174C193.185 38.3767 193.109 38.478 192.957 38.478C192.147 38.554 191.273 38.8073 190.335 39.238C190.437 39.5927 190.5 39.9853 190.525 40.416C190.576 40.8467 190.601 41.2773 190.601 41.708C190.601 42.9493 190.449 44.2667 190.145 45.66C189.841 47.0533 189.411 48.4087 188.853 49.726C188.321 51.0687 187.675 52.2847 186.915 53.374C186.181 54.4633 185.357 55.3247 184.445 55.958C183.533 56.6167 182.558 56.946 181.519 56.946ZM181.367 56.11C182.33 56.11 183.204 55.692 183.989 54.856C184.8 54.0453 185.484 52.9813 186.041 51.664C186.624 50.372 187.067 48.966 187.371 47.446C187.701 45.9513 187.865 44.52 187.865 43.152C187.865 42.7467 187.84 42.354 187.789 41.974C187.764 41.594 187.726 41.2393 187.675 40.91C185.953 42.1513 184.471 43.532 183.229 45.052C182.013 46.572 181.101 48.0793 180.493 49.574C180.215 50.2833 179.999 50.9547 179.847 51.588C179.721 52.2467 179.657 52.842 179.657 53.374C179.657 54.21 179.809 54.8687 180.113 55.35C180.417 55.8567 180.835 56.11 181.367 56.11Z" fill="black"/>
</svg>
