<svg xmlns="http://www.w3.org/2000/svg" xmlns:v="https://svgstorm.com"
viewBox = "0 0 512 512"
width="512"
height="512">
<g fill="None" fill-opacity="0.0" stroke="#000000" stroke-opacity="0.00" stroke-width="0.3"><path d="
M 0.00 512.00 
L 512.00 512.00
L 512.00 0.00
L 0.00 0.00
L 0.00 512.00
M 427.00 151.00 
C 448.30 151.28 482.79 143.58 496.25 164.75 C 509.71 185.92 494.97 213.10 488.23 233.23 C 481.49 253.36 471.15 272.05 457.75 288.75 C 444.36 305.45 425.30 317.23 405.00 322.00
C 396.88 348.79 385.90 373.67 365.75 394.75 C 345.60 415.83 323.98 428.66 295.78 436.78 C 267.57 444.89 224.54 447.62 194.33 444.67 C 164.12 441.72 134.96 432.90 110.25 416.75 C 85.54 400.59 70.71 384.95 55.23 359.77 C 39.75 334.59 31.34 308.79 24.02 278.98 C 16.71 249.16 14.35 210.35 13.00 178.00 C 11.65 145.65 35.95 128.08 64.23 117.23 C 92.51 106.38 123.37 100.04 154.67 95.67 C 185.97 91.31 228.70 89.88 261.00 92.00 C 293.30 94.12 330.73 96.87 360.01 104.99 C 389.28 113.11 417.33 120.70 427.00 151.00 Z"/>
</g>
<g fill="None" fill-opacity="0.0" stroke="#3D1F04" stroke-opacity="0.94" stroke-width="0.3"><path d="
M 427.00 151.00 
C 417.33 120.70 389.28 113.11 360.01 104.99 C 330.73 96.87 293.30 94.12 261.00 92.00 C 228.70 89.88 185.97 91.31 154.67 95.67 C 123.37 100.04 92.51 106.38 64.23 117.23 C 35.95 128.08 11.65 145.65 13.00 178.00 C 14.35 210.35 16.71 249.16 24.02 278.98 C 31.34 308.79 39.75 334.59 55.23 359.77 C 70.71 384.95 85.54 400.59 110.25 416.75 C 134.96 432.90 164.12 441.72 194.33 444.67 C 224.54 447.62 267.57 444.89 295.78 436.78 C 323.98 428.66 345.60 415.83 365.75 394.75 C 385.90 373.67 396.88 348.79 405.00 322.00
C 425.30 317.23 444.36 305.45 457.75 288.75 C 471.15 272.05 481.49 253.36 488.23 233.23 C 494.97 213.10 509.71 185.92 496.25 164.75 C 482.79 143.58 448.30 151.28 427.00 151.00
M 442.00 159.00 
C 447.67 158.45 454.40 158.46 460.00 159.00
C 474.20 159.00 492.19 163.93 492.78 180.22 C 493.37 196.51 488.09 210.38 483.02 224.02 C 477.96 237.67 472.97 250.14 466.08 262.08 C 459.18 274.01 453.20 283.70 442.75 292.75 C 432.31 301.80 421.33 309.00 407.78 312.78 C 394.23 316.55 393.25 334.15 387.22 346.22 C 381.20 358.30 375.51 370.33 366.75 380.75 C 357.98 391.16 350.31 399.26 338.92 406.92 C 327.53 414.58 316.35 420.97 302.77 425.77 C 289.19 430.57 273.09 432.99 258.00 435.00 C 242.91 437.01 220.71 437.70 205.00 437.00 C 189.29 436.30 172.79 433.32 158.78 429.22 C 144.77 425.13 131.68 420.49 119.92 413.08 C 108.17 405.67 98.89 399.52 89.25 389.75 C 79.60 379.99 72.33 370.63 64.75 359.25 C 57.16 347.88 52.07 336.45 46.68 323.32 C 41.28 310.19 36.43 296.40 33.22 281.78 C 30.01 267.16 26.89 251.70 25.02 235.98 C 23.16 220.26 22.00 200.53 22.00 184.00
C 21.48 178.59 21.12 172.40 22.00 167.00
C 23.26 143.79 47.56 134.10 67.23 125.23 C 86.90 116.36 113.67 111.17 137.00 107.00 C 160.33 102.83 191.57 99.34 217.00 99.00 C 242.44 98.66 275.45 100.39 300.00 103.00 C 324.56 105.61 350.92 110.84 373.07 117.93 C 395.23 125.02 420.00 134.14 418.00 161.00
C 426.11 160.85 433.59 158.03 442.00 159.00 Z"/>
</g>
<g fill="None" fill-opacity="0.0" stroke="#FCFCE9" stroke-opacity="1.00" stroke-width="0.3"><path d="
M 22.00 167.00 
C 21.69 172.63 22.00 178.36 22.00 184.00
C 22.00 200.53 23.16 220.26 25.02 235.98 C 26.89 251.70 30.01 267.16 33.22 281.78 C 36.43 296.40 41.28 310.19 46.68 323.32 C 52.07 336.45 57.16 347.88 64.75 359.25 C 72.33 370.63 79.60 379.99 89.25 389.75 C 98.89 399.52 108.17 405.67 119.92 413.08 C 131.68 420.49 144.77 425.13 158.78 429.22 C 172.79 433.32 189.29 436.30 205.00 437.00 C 220.71 437.70 242.91 437.01 258.00 435.00 C 273.09 432.99 289.19 430.57 302.77 425.77 C 316.35 420.97 327.53 414.58 338.92 406.92 C 350.31 399.26 357.98 391.16 366.75 380.75 C 375.51 370.33 381.20 358.30 387.22 346.22 C 393.25 334.15 394.23 316.55 407.78 312.78 C 421.33 309.00 432.31 301.80 442.75 292.75 C 453.20 283.70 459.18 274.01 466.08 262.08 C 472.97 250.14 477.96 237.67 483.02 224.02 C 488.09 210.38 493.37 196.51 492.78 180.22 C 492.19 163.93 474.20 159.00 460.00 159.00
C 454.00 159.00 448.00 159.00 442.00 159.00
C 433.59 158.03 426.11 160.85 418.00 161.00
C 420.00 134.14 395.23 125.02 373.07 117.93 C 350.92 110.84 324.56 105.61 300.00 103.00 C 275.45 100.39 242.44 98.66 217.00 99.00 C 191.57 99.34 160.33 102.83 137.00 107.00 C 113.67 111.17 86.90 116.36 67.23 125.23 C 47.56 134.10 23.26 143.79 22.00 167.00
M 382.00 176.00 
C 380.79 177.61 379.33 178.67 378.00 180.00
C 361.17 196.83 340.79 200.19 317.98 205.98 C 295.16 211.77 264.84 215.00 240.00 215.00
C 229.94 215.97 217.99 215.97 208.00 215.00
C 163.73 215.00 109.65 210.09 73.00 185.00
C 72.37 184.57 71.62 184.38 71.00 184.00
C 49.12 170.68 64.40 148.03 83.08 140.08 C 101.75 132.12 122.13 125.52 143.67 122.67 C 165.21 119.82 192.22 116.22 215.00 116.00 C 237.78 115.78 267.85 117.62 289.00 120.00 C 310.15 122.38 334.36 129.18 352.22 134.78 C 370.09 140.37 396.02 157.33 382.00 176.00
M 410.00 265.00 
C 410.54 254.43 412.90 246.45 413.78 235.78 C 414.66 225.11 415.37 216.33 416.00 205.00 C 416.63 193.67 428.00 196.89 438.00 194.00 C 448.00 191.11 457.86 199.83 455.00 210.00 C 452.14 220.17 451.69 226.91 447.08 235.08 C 442.46 243.24 438.52 246.92 432.25 253.25 C 425.98 259.58 418.28 263.00 410.00 265.00
M 100.00 251.00 
C 123.65 255.90 111.43 296.71 88.00 288.00 C 64.57 279.29 74.91 245.80 100.00 251.00
M 280.00 257.00 
C 304.45 259.18 299.43 298.28 275.00 295.00 C 250.57 291.72 255.02 254.77 280.00 257.00
M 194.00 344.00 
C 190.54 344.33 186.39 344.33 183.00 344.00
C 163.24 344.00 139.98 336.92 126.70 322.30 C 113.41 307.68 134.21 306.63 141.08 313.92 C 147.94 321.21 160.27 321.55 169.67 324.33 C 179.07 327.11 196.17 327.55 206.00 324.00 C 215.83 320.46 225.42 320.95 234.23 313.23 C 243.04 305.51 258.25 310.18 249.75 320.75 C 241.24 331.31 236.22 330.72 226.31 336.31 C 216.39 341.89 205.29 344.00 194.00 344.00 Z"/>
</g>
<g fill="None" fill-opacity="0.0" stroke="#C4B8AB" stroke-opacity="1.00" stroke-width="0.3"><path d="
M 71.00 184.00 
C 64.87 178.28 62.74 174.00 69.75 168.75 C 76.77 163.51 80.42 161.27 88.00 158.00
C 129.83 139.95 177.42 137.44 224.00 137.00 C 270.58 136.56 317.62 141.35 359.00 159.00
C 362.63 160.55 369.46 162.88 372.23 165.77 C 375.00 168.66 382.37 171.53 382.00 176.00
C 396.02 157.33 370.09 140.37 352.22 134.78 C 334.36 129.18 310.15 122.38 289.00 120.00 C 267.85 117.62 237.78 115.78 215.00 116.00 C 192.22 116.22 165.21 119.82 143.67 122.67 C 122.13 125.52 101.75 132.12 83.08 140.08 C 64.40 148.03 49.12 170.68 71.00 184.00 Z"/>
</g>
<g fill="None" fill-opacity="0.0" stroke="#936132" stroke-opacity="1.00" stroke-width="0.3"><path d="
M 88.00 158.00 
C 91.21 157.91 96.39 161.37 100.00 157.00
C 100.10 161.15 108.68 160.66 115.00 160.00 C 121.32 159.34 125.72 160.71 130.00 157.00
C 135.82 161.29 139.35 159.01 147.00 160.00 C 154.65 160.99 163.16 159.55 171.00 160.00 C 178.84 160.45 187.07 159.80 195.00 160.00 C 202.93 160.20 211.03 159.91 219.00 160.00 C 226.97 160.09 235.01 159.96 243.00 160.00 C 250.99 160.04 259.01 159.98 267.00 160.00 C 274.99 160.02 283.00 159.98 291.00 160.00 C 299.00 160.02 307.00 159.97 315.00 160.00 C 323.00 160.03 331.01 159.95 339.00 160.00 C 346.99 160.05 353.12 159.09 359.00 159.00
C 317.62 141.35 270.58 136.56 224.00 137.00 C 177.42 137.44 129.83 139.95 88.00 158.00 Z"/>
</g>
<g fill="None" fill-opacity="0.0" stroke="#A16F3C" stroke-opacity="1.00" stroke-width="0.3"><path d="
M 88.00 158.00 
C 80.42 161.27 76.77 163.51 69.75 168.75 C 62.74 174.00 64.87 178.28 71.00 184.00
C 71.62 184.38 72.37 184.57 73.00 185.00
C 76.19 185.13 81.11 180.73 82.00 178.00
C 92.08 185.39 105.83 178.63 120.00 180.00 C 134.17 181.37 149.55 179.41 164.00 180.00 C 178.45 180.59 193.41 179.79 208.00 180.00 C 222.59 180.21 238.44 180.00 253.00 180.00 C 267.56 180.00 282.67 180.24 297.00 180.00 C 311.33 179.76 327.13 180.63 341.00 180.00 C 354.87 179.37 365.73 189.60 378.00 180.00
C 379.33 178.67 380.79 177.61 382.00 176.00
C 382.37 171.53 375.00 168.66 372.23 165.77 C 369.46 162.88 362.63 160.55 359.00 159.00
C 353.12 159.09 346.99 160.05 339.00 160.00 C 331.01 159.95 323.00 160.03 315.00 160.00 C 307.00 159.97 299.00 160.02 291.00 160.00 C 283.00 159.98 274.99 160.02 267.00 160.00 C 259.01 159.98 250.99 160.04 243.00 160.00 C 235.01 159.96 226.97 160.09 219.00 160.00 C 211.03 159.91 202.93 160.20 195.00 160.00 C 187.07 159.80 178.84 160.45 171.00 160.00 C 163.16 159.55 154.65 160.99 147.00 160.00 C 139.35 159.01 135.82 161.29 130.00 157.00
C 125.72 160.71 121.32 159.34 115.00 160.00 C 108.68 160.66 100.10 161.15 100.00 157.00
C 96.39 161.37 91.21 157.91 88.00 158.00 Z"/>
</g>
<g fill="None" fill-opacity="0.0" stroke="#89765F" stroke-opacity="1.00" stroke-width="0.3"><path d="
M 442.00 159.00 
C 448.00 159.00 454.00 159.00 460.00 159.00
C 454.40 158.46 447.67 158.45 442.00 159.00 Z"/>
</g>
<g fill="None" fill-opacity="0.0" stroke="#907E5E" stroke-opacity="1.00" stroke-width="0.3"><path d="
M 22.00 184.00 
C 22.00 178.36 21.69 172.63 22.00 167.00
C 21.12 172.40 21.48 178.59 22.00 184.00 Z"/>
</g>
<g fill="None" fill-opacity="0.0" stroke="#B1814A" stroke-opacity="1.00" stroke-width="0.3"><path d="
M 73.00 185.00 
C 109.65 210.09 163.73 215.00 208.00 215.00
C 218.67 215.00 229.33 215.00 240.00 215.00
C 264.84 215.00 295.16 211.77 317.98 205.98 C 340.79 200.19 361.17 196.83 378.00 180.00
C 365.73 189.60 354.87 179.37 341.00 180.00 C 327.13 180.63 311.33 179.76 297.00 180.00 C 282.67 180.24 267.56 180.00 253.00 180.00 C 238.44 180.00 222.59 180.21 208.00 180.00 C 193.41 179.79 178.45 180.59 164.00 180.00 C 149.55 179.41 134.17 181.37 120.00 180.00 C 105.83 178.63 92.08 185.39 82.00 178.00
C 81.11 180.73 76.19 185.13 73.00 185.00 Z"/>
</g>
<g fill="None" fill-opacity="0.0" stroke="#3D1F04" stroke-opacity="0.95" stroke-width="0.3"><path d="
M 410.00 265.00 
C 418.28 263.00 425.98 259.58 432.25 253.25 C 438.52 246.92 442.46 243.24 447.08 235.08 C 451.69 226.91 452.14 220.17 455.00 210.00 C 457.86 199.83 448.00 191.11 438.00 194.00 C 428.00 196.89 416.63 193.67 416.00 205.00 C 415.37 216.33 414.66 225.11 413.78 235.78 C 412.90 246.45 410.54 254.43 410.00 265.00
M 420.00 252.00 
C 422.42 236.20 422.98 219.91 425.00 204.00
C 433.90 205.99 448.30 193.68 446.07 210.07 C 443.84 226.47 434.75 242.83 420.00 252.00 Z"/>
</g>
<g fill="None" fill-opacity="0.0" stroke="#000000" stroke-opacity="0.00" stroke-width="0.3"><path d="
M 420.00 252.00 
C 434.75 242.83 443.84 226.47 446.07 210.07 C 448.30 193.68 433.90 205.99 425.00 204.00
C 422.98 219.91 422.42 236.20 420.00 252.00 Z"/>
</g>
<g fill="None" fill-opacity="0.0" stroke="#D4BC93" stroke-opacity="1.00" stroke-width="0.3"><path d="
M 240.00 215.00 
C 229.33 215.00 218.67 215.00 208.00 215.00
C 217.99 215.97 229.94 215.97 240.00 215.00 Z"/>
</g>
<g fill="None" fill-opacity="0.0" stroke="#3F240E" stroke-opacity="1.00" stroke-width="0.3"><path d="
M 100.00 251.00 
C 74.91 245.80 64.57 279.29 88.00 288.00 C 111.43 296.71 123.65 255.90 100.00 251.00 Z"/>
</g>
<g fill="None" fill-opacity="0.0" stroke="#3F240F" stroke-opacity="1.00" stroke-width="0.3"><path d="
M 280.00 257.00 
C 255.02 254.77 250.57 291.72 275.00 295.00 C 299.43 298.28 304.45 259.18 280.00 257.00 Z"/>
</g>
<g fill="None" fill-opacity="0.0" stroke="#40240F" stroke-opacity="1.00" stroke-width="0.3"><path d="
M 183.00 344.00 
C 186.67 344.00 190.33 344.00 194.00 344.00
C 205.29 344.00 216.39 341.89 226.31 336.31 C 236.22 330.72 241.24 331.31 249.75 320.75 C 258.25 310.18 243.04 305.51 234.23 313.23 C 225.42 320.95 215.83 320.46 206.00 324.00 C 196.17 327.55 179.07 327.11 169.67 324.33 C 160.27 321.55 147.94 321.21 141.08 313.92 C 134.21 306.63 113.41 307.68 126.70 322.30 C 139.98 336.92 163.24 344.00 183.00 344.00 Z"/>
</g>
<g fill="None" fill-opacity="0.0" stroke="#938974" stroke-opacity="1.00" stroke-width="0.3"><path d="
M 194.00 344.00 
C 190.33 344.00 186.67 344.00 183.00 344.00
C 186.39 344.33 190.54 344.33 194.00 344.00 Z"/>
</g>
<g fill="#000000" fill-opacity="0.00" stroke="None">
<path d="
M 0.00 512.00 
L 512.00 512.00
L 512.00 0.00
L 0.00 0.00
L 0.00 512.00
M 427.00 151.00 
C 448.30 151.28 482.79 143.58 496.25 164.75 C 509.71 185.92 494.97 213.10 488.23 233.23 C 481.49 253.36 471.15 272.05 457.75 288.75 C 444.36 305.45 425.30 317.23 405.00 322.00
C 396.88 348.79 385.90 373.67 365.75 394.75 C 345.60 415.83 323.98 428.66 295.78 436.78 C 267.57 444.89 224.54 447.62 194.33 444.67 C 164.12 441.72 134.96 432.90 110.25 416.75 C 85.54 400.59 70.71 384.95 55.23 359.77 C 39.75 334.59 31.34 308.79 24.02 278.98 C 16.71 249.16 14.35 210.35 13.00 178.00 C 11.65 145.65 35.95 128.08 64.23 117.23 C 92.51 106.38 123.37 100.04 154.67 95.67 C 185.97 91.31 228.70 89.88 261.00 92.00 C 293.30 94.12 330.73 96.87 360.01 104.99 C 389.28 113.11 417.33 120.70 427.00 151.00 Z"/>
</g>
<g fill="#3D1F04" fill-opacity="0.94" stroke="None">
<path d="
M 427.00 151.00 
C 417.33 120.70 389.28 113.11 360.01 104.99 C 330.73 96.87 293.30 94.12 261.00 92.00 C 228.70 89.88 185.97 91.31 154.67 95.67 C 123.37 100.04 92.51 106.38 64.23 117.23 C 35.95 128.08 11.65 145.65 13.00 178.00 C 14.35 210.35 16.71 249.16 24.02 278.98 C 31.34 308.79 39.75 334.59 55.23 359.77 C 70.71 384.95 85.54 400.59 110.25 416.75 C 134.96 432.90 164.12 441.72 194.33 444.67 C 224.54 447.62 267.57 444.89 295.78 436.78 C 323.98 428.66 345.60 415.83 365.75 394.75 C 385.90 373.67 396.88 348.79 405.00 322.00
C 425.30 317.23 444.36 305.45 457.75 288.75 C 471.15 272.05 481.49 253.36 488.23 233.23 C 494.97 213.10 509.71 185.92 496.25 164.75 C 482.79 143.58 448.30 151.28 427.00 151.00
M 442.00 159.00 
C 447.67 158.45 454.40 158.46 460.00 159.00
C 474.20 159.00 492.19 163.93 492.78 180.22 C 493.37 196.51 488.09 210.38 483.02 224.02 C 477.96 237.67 472.97 250.14 466.08 262.08 C 459.18 274.01 453.20 283.70 442.75 292.75 C 432.31 301.80 421.33 309.00 407.78 312.78 C 394.23 316.55 393.25 334.15 387.22 346.22 C 381.20 358.30 375.51 370.33 366.75 380.75 C 357.98 391.16 350.31 399.26 338.92 406.92 C 327.53 414.58 316.35 420.97 302.77 425.77 C 289.19 430.57 273.09 432.99 258.00 435.00 C 242.91 437.01 220.71 437.70 205.00 437.00 C 189.29 436.30 172.79 433.32 158.78 429.22 C 144.77 425.13 131.68 420.49 119.92 413.08 C 108.17 405.67 98.89 399.52 89.25 389.75 C 79.60 379.99 72.33 370.63 64.75 359.25 C 57.16 347.88 52.07 336.45 46.68 323.32 C 41.28 310.19 36.43 296.40 33.22 281.78 C 30.01 267.16 26.89 251.70 25.02 235.98 C 23.16 220.26 22.00 200.53 22.00 184.00
C 21.48 178.59 21.12 172.40 22.00 167.00
C 23.26 143.79 47.56 134.10 67.23 125.23 C 86.90 116.36 113.67 111.17 137.00 107.00 C 160.33 102.83 191.57 99.34 217.00 99.00 C 242.44 98.66 275.45 100.39 300.00 103.00 C 324.56 105.61 350.92 110.84 373.07 117.93 C 395.23 125.02 420.00 134.14 418.00 161.00
C 426.11 160.85 433.59 158.03 442.00 159.00 Z"/>
</g>
<g fill="#FCFCE9" fill-opacity="1.00" stroke="None">
<path d="
M 22.00 167.00 
C 21.69 172.63 22.00 178.36 22.00 184.00
C 22.00 200.53 23.16 220.26 25.02 235.98 C 26.89 251.70 30.01 267.16 33.22 281.78 C 36.43 296.40 41.28 310.19 46.68 323.32 C 52.07 336.45 57.16 347.88 64.75 359.25 C 72.33 370.63 79.60 379.99 89.25 389.75 C 98.89 399.52 108.17 405.67 119.92 413.08 C 131.68 420.49 144.77 425.13 158.78 429.22 C 172.79 433.32 189.29 436.30 205.00 437.00 C 220.71 437.70 242.91 437.01 258.00 435.00 C 273.09 432.99 289.19 430.57 302.77 425.77 C 316.35 420.97 327.53 414.58 338.92 406.92 C 350.31 399.26 357.98 391.16 366.75 380.75 C 375.51 370.33 381.20 358.30 387.22 346.22 C 393.25 334.15 394.23 316.55 407.78 312.78 C 421.33 309.00 432.31 301.80 442.75 292.75 C 453.20 283.70 459.18 274.01 466.08 262.08 C 472.97 250.14 477.96 237.67 483.02 224.02 C 488.09 210.38 493.37 196.51 492.78 180.22 C 492.19 163.93 474.20 159.00 460.00 159.00
C 454.00 159.00 448.00 159.00 442.00 159.00
C 433.59 158.03 426.11 160.85 418.00 161.00
C 420.00 134.14 395.23 125.02 373.07 117.93 C 350.92 110.84 324.56 105.61 300.00 103.00 C 275.45 100.39 242.44 98.66 217.00 99.00 C 191.57 99.34 160.33 102.83 137.00 107.00 C 113.67 111.17 86.90 116.36 67.23 125.23 C 47.56 134.10 23.26 143.79 22.00 167.00
M 382.00 176.00 
C 380.79 177.61 379.33 178.67 378.00 180.00
C 361.17 196.83 340.79 200.19 317.98 205.98 C 295.16 211.77 264.84 215.00 240.00 215.00
C 229.94 215.97 217.99 215.97 208.00 215.00
C 163.73 215.00 109.65 210.09 73.00 185.00
C 72.37 184.57 71.62 184.38 71.00 184.00
C 49.12 170.68 64.40 148.03 83.08 140.08 C 101.75 132.12 122.13 125.52 143.67 122.67 C 165.21 119.82 192.22 116.22 215.00 116.00 C 237.78 115.78 267.85 117.62 289.00 120.00 C 310.15 122.38 334.36 129.18 352.22 134.78 C 370.09 140.37 396.02 157.33 382.00 176.00
M 410.00 265.00 
C 410.54 254.43 412.90 246.45 413.78 235.78 C 414.66 225.11 415.37 216.33 416.00 205.00 C 416.63 193.67 428.00 196.89 438.00 194.00 C 448.00 191.11 457.86 199.83 455.00 210.00 C 452.14 220.17 451.69 226.91 447.08 235.08 C 442.46 243.24 438.52 246.92 432.25 253.25 C 425.98 259.58 418.28 263.00 410.00 265.00
M 100.00 251.00 
C 123.65 255.90 111.43 296.71 88.00 288.00 C 64.57 279.29 74.91 245.80 100.00 251.00
M 280.00 257.00 
C 304.45 259.18 299.43 298.28 275.00 295.00 C 250.57 291.72 255.02 254.77 280.00 257.00
M 194.00 344.00 
C 190.54 344.33 186.39 344.33 183.00 344.00
C 163.24 344.00 139.98 336.92 126.70 322.30 C 113.41 307.68 134.21 306.63 141.08 313.92 C 147.94 321.21 160.27 321.55 169.67 324.33 C 179.07 327.11 196.17 327.55 206.00 324.00 C 215.83 320.46 225.42 320.95 234.23 313.23 C 243.04 305.51 258.25 310.18 249.75 320.75 C 241.24 331.31 236.22 330.72 226.31 336.31 C 216.39 341.89 205.29 344.00 194.00 344.00 Z"/>
</g>
<g fill="#C4B8AB" fill-opacity="1.00" stroke="None">
<path d="
M 71.00 184.00 
C 64.87 178.28 62.74 174.00 69.75 168.75 C 76.77 163.51 80.42 161.27 88.00 158.00
C 129.83 139.95 177.42 137.44 224.00 137.00 C 270.58 136.56 317.62 141.35 359.00 159.00
C 362.63 160.55 369.46 162.88 372.23 165.77 C 375.00 168.66 382.37 171.53 382.00 176.00
C 396.02 157.33 370.09 140.37 352.22 134.78 C 334.36 129.18 310.15 122.38 289.00 120.00 C 267.85 117.62 237.78 115.78 215.00 116.00 C 192.22 116.22 165.21 119.82 143.67 122.67 C 122.13 125.52 101.75 132.12 83.08 140.08 C 64.40 148.03 49.12 170.68 71.00 184.00 Z"/>
</g>
<g fill="#936132" fill-opacity="1.00" stroke="None">
<path d="
M 88.00 158.00 
C 91.21 157.91 96.39 161.37 100.00 157.00
C 100.10 161.15 108.68 160.66 115.00 160.00 C 121.32 159.34 125.72 160.71 130.00 157.00
C 135.82 161.29 139.35 159.01 147.00 160.00 C 154.65 160.99 163.16 159.55 171.00 160.00 C 178.84 160.45 187.07 159.80 195.00 160.00 C 202.93 160.20 211.03 159.91 219.00 160.00 C 226.97 160.09 235.01 159.96 243.00 160.00 C 250.99 160.04 259.01 159.98 267.00 160.00 C 274.99 160.02 283.00 159.98 291.00 160.00 C 299.00 160.02 307.00 159.97 315.00 160.00 C 323.00 160.03 331.01 159.95 339.00 160.00 C 346.99 160.05 353.12 159.09 359.00 159.00
C 317.62 141.35 270.58 136.56 224.00 137.00 C 177.42 137.44 129.83 139.95 88.00 158.00 Z"/>
</g>
<g fill="#A16F3C" fill-opacity="1.00" stroke="None">
<path d="
M 88.00 158.00 
C 80.42 161.27 76.77 163.51 69.75 168.75 C 62.74 174.00 64.87 178.28 71.00 184.00
C 71.62 184.38 72.37 184.57 73.00 185.00
C 76.19 185.13 81.11 180.73 82.00 178.00
C 92.08 185.39 105.83 178.63 120.00 180.00 C 134.17 181.37 149.55 179.41 164.00 180.00 C 178.45 180.59 193.41 179.79 208.00 180.00 C 222.59 180.21 238.44 180.00 253.00 180.00 C 267.56 180.00 282.67 180.24 297.00 180.00 C 311.33 179.76 327.13 180.63 341.00 180.00 C 354.87 179.37 365.73 189.60 378.00 180.00
C 379.33 178.67 380.79 177.61 382.00 176.00
C 382.37 171.53 375.00 168.66 372.23 165.77 C 369.46 162.88 362.63 160.55 359.00 159.00
C 353.12 159.09 346.99 160.05 339.00 160.00 C 331.01 159.95 323.00 160.03 315.00 160.00 C 307.00 159.97 299.00 160.02 291.00 160.00 C 283.00 159.98 274.99 160.02 267.00 160.00 C 259.01 159.98 250.99 160.04 243.00 160.00 C 235.01 159.96 226.97 160.09 219.00 160.00 C 211.03 159.91 202.93 160.20 195.00 160.00 C 187.07 159.80 178.84 160.45 171.00 160.00 C 163.16 159.55 154.65 160.99 147.00 160.00 C 139.35 159.01 135.82 161.29 130.00 157.00
C 125.72 160.71 121.32 159.34 115.00 160.00 C 108.68 160.66 100.10 161.15 100.00 157.00
C 96.39 161.37 91.21 157.91 88.00 158.00 Z"/>
</g>
<g fill="#89765F" fill-opacity="1.00" stroke="None">
<path d="
M 442.00 159.00 
C 448.00 159.00 454.00 159.00 460.00 159.00
C 454.40 158.46 447.67 158.45 442.00 159.00 Z"/>
</g>
<g fill="#907E5E" fill-opacity="1.00" stroke="None">
<path d="
M 22.00 184.00 
C 22.00 178.36 21.69 172.63 22.00 167.00
C 21.12 172.40 21.48 178.59 22.00 184.00 Z"/>
</g>
<g fill="#B1814A" fill-opacity="1.00" stroke="None">
<path d="
M 73.00 185.00 
C 109.65 210.09 163.73 215.00 208.00 215.00
C 218.67 215.00 229.33 215.00 240.00 215.00
C 264.84 215.00 295.16 211.77 317.98 205.98 C 340.79 200.19 361.17 196.83 378.00 180.00
C 365.73 189.60 354.87 179.37 341.00 180.00 C 327.13 180.63 311.33 179.76 297.00 180.00 C 282.67 180.24 267.56 180.00 253.00 180.00 C 238.44 180.00 222.59 180.21 208.00 180.00 C 193.41 179.79 178.45 180.59 164.00 180.00 C 149.55 179.41 134.17 181.37 120.00 180.00 C 105.83 178.63 92.08 185.39 82.00 178.00
C 81.11 180.73 76.19 185.13 73.00 185.00 Z"/>
</g>
<g fill="#3D1F04" fill-opacity="0.95" stroke="None">
<path d="
M 410.00 265.00 
C 418.28 263.00 425.98 259.58 432.25 253.25 C 438.52 246.92 442.46 243.24 447.08 235.08 C 451.69 226.91 452.14 220.17 455.00 210.00 C 457.86 199.83 448.00 191.11 438.00 194.00 C 428.00 196.89 416.63 193.67 416.00 205.00 C 415.37 216.33 414.66 225.11 413.78 235.78 C 412.90 246.45 410.54 254.43 410.00 265.00
M 420.00 252.00 
C 422.42 236.20 422.98 219.91 425.00 204.00
C 433.90 205.99 448.30 193.68 446.07 210.07 C 443.84 226.47 434.75 242.83 420.00 252.00 Z"/>
</g>
<g fill="#000000" fill-opacity="0.00" stroke="None">
<path d="
M 420.00 252.00 
C 434.75 242.83 443.84 226.47 446.07 210.07 C 448.30 193.68 433.90 205.99 425.00 204.00
C 422.98 219.91 422.42 236.20 420.00 252.00 Z"/>
</g>
<g fill="#D4BC93" fill-opacity="1.00" stroke="None">
<path d="
M 240.00 215.00 
C 229.33 215.00 218.67 215.00 208.00 215.00
C 217.99 215.97 229.94 215.97 240.00 215.00 Z"/>
</g>
<g fill="#3F240E" fill-opacity="1.00" stroke="None">
<path d="
M 100.00 251.00 
C 74.91 245.80 64.57 279.29 88.00 288.00 C 111.43 296.71 123.65 255.90 100.00 251.00 Z"/>
</g>
<g fill="#3F240F" fill-opacity="1.00" stroke="None">
<path d="
M 280.00 257.00 
C 255.02 254.77 250.57 291.72 275.00 295.00 C 299.43 298.28 304.45 259.18 280.00 257.00 Z"/>
</g>
<g fill="#40240F" fill-opacity="1.00" stroke="None">
<path d="
M 183.00 344.00 
C 186.67 344.00 190.33 344.00 194.00 344.00
C 205.29 344.00 216.39 341.89 226.31 336.31 C 236.22 330.72 241.24 331.31 249.75 320.75 C 258.25 310.18 243.04 305.51 234.23 313.23 C 225.42 320.95 215.83 320.46 206.00 324.00 C 196.17 327.55 179.07 327.11 169.67 324.33 C 160.27 321.55 147.94 321.21 141.08 313.92 C 134.21 306.63 113.41 307.68 126.70 322.30 C 139.98 336.92 163.24 344.00 183.00 344.00 Z"/>
</g>
<g fill="#938974" fill-opacity="1.00" stroke="None">
<path d="
M 194.00 344.00 
C 190.33 344.00 186.67 344.00 183.00 344.00
C 186.39 344.33 190.54 344.33 194.00 344.00 Z"/>
</g>
</svg>